<svg width="55" height="30" viewBox="0 0 55 30" fill="none" xmlns="http://www.w3.org/2000/svg">
<g id="hp-1-50 1" clip-path="url(#clip0_15_166)">
<g id="Page-1">
<g id="Cars-Like-New_No-Dings_2">
<g id="1-50">
<path id="Fill-194" fill-rule="evenodd" clip-rule="evenodd" d="M20.5718 12.0546C19.8483 11.605 18.8341 11.741 18.3097 12.3602C17.7834 12.9781 17.9444 13.8443 18.6675 14.2922L25.8422 18.7447L36.7727 3.01526C37.2301 2.35898 36.975 1.50977 36.2066 1.11916C35.4364 0.729742 34.4416 0.945999 33.9862 1.60386L24.8715 14.7216L20.5718 12.0546Z" fill="#E54592"/>
<path id="Fill-196" fill-rule="evenodd" clip-rule="evenodd" d="M41.005 27.3711C38.9373 27.3711 37.2568 25.8942 37.2568 24.0816C37.2568 22.267 38.9373 20.7905 41.005 20.7905C43.0726 20.7905 44.755 22.267 44.755 24.0816C44.755 25.8942 43.0726 27.3711 41.005 27.3711ZM13.2446 27.3711C11.1788 27.3711 9.49638 25.8942 9.49638 24.0816C9.49638 22.267 11.1788 20.7905 13.2446 20.7905C15.3122 20.7905 16.9946 22.267 16.9946 24.0816C16.9946 25.8942 15.3122 27.3711 13.2446 27.3711ZM54.4113 18.1521C53.0233 15.5899 51.5981 14.2067 50.0579 13.9232L41.4984 12.3487C40.9373 12.2458 40.423 11.981 40.0482 11.601L36.7811 8.29757C36.5966 8.11057 36.3958 7.93912 36.1882 7.77564L34.9533 9.60421C34.9692 9.61976 34.9888 9.63531 35.0047 9.65086L38.2717 12.9543C38.9819 13.6724 39.9559 14.174 41.0154 14.3702L49.575 15.9448C50.1306 16.0461 51.1352 16.9137 52.2869 19.0381C52.7694 19.9277 52.7662 20.94 52.2778 21.8168L51.9779 22.3559C51.7458 22.7778 51.2487 23.0489 50.7163 23.0489H46.9912C46.441 20.5896 43.9668 18.7267 41.005 18.7267C38.0428 18.7267 35.5708 20.5896 35.0206 23.0489H19.2308C18.6806 20.5896 16.2068 18.7267 13.2446 18.7267C10.2846 18.7267 7.81037 20.5896 7.26017 23.0489H3.41474C2.82911 23.0489 2.35342 22.6314 2.35342 22.1175V16.9587C2.35342 16.5257 2.6869 16.1553 3.1644 16.054L8.92665 14.8359C10.0184 14.6039 10.9784 14.0353 11.6299 13.2334L14.3114 9.93595C15.126 8.93434 16.4499 8.33466 17.8538 8.33466H27.8862L29.281 6.27124H17.8538C15.6902 6.27124 13.6512 7.1931 12.3964 8.73817L9.71491 12.0356C9.39188 12.4328 8.91802 12.7147 8.37691 12.8283L2.61421 14.0464C1.0754 14.3718 0 15.5696 0 16.9587V22.1175C0 23.7682 1.53154 25.1127 3.41474 25.1127H7.26017C7.81037 27.5733 10.2846 29.4361 13.2446 29.4361C16.2068 29.4361 18.6806 27.5733 19.2308 25.1127H35.0206C35.5708 27.5733 38.0428 29.4361 41.005 29.4361C43.9668 29.4361 46.441 27.5733 46.9912 25.1127H50.7163C52.1415 25.1127 53.4672 24.3866 54.0933 23.2622L54.3936 22.7232C55.1955 21.2778 55.2028 19.6115 54.4113 18.1521Z" fill="#E54592"/>
</g>
</g>
</g>
</g>
<defs>
<clipPath id="clip0_15_166">
<rect width="55" height="28.5106" fill="white" transform="translate(0 0.925537)"/>
</clipPath>
</defs>
</svg>
