<svg width="55" height="34" viewBox="0 0 55 34" fill="none" xmlns="http://www.w3.org/2000/svg">
<g id="hp-like-new 1" clip-path="url(#clip0_15_190)">
<g id="Page-1">
<g id="Cars-Like-New_No-Dings_2">
<g id="LIKENEW">
<path id="Fill-191" fill-rule="evenodd" clip-rule="evenodd" d="M1.35449 10.9695L3.13515 11.4091C3.24994 11.4663 3.34398 11.5505 3.4062 11.6511L3.90152 13.2374C4.03175 13.4492 4.26518 13.5532 4.50102 13.5532C4.73446 13.5532 4.96982 13.4492 5.10004 13.2374L5.59344 11.6511C5.65565 11.5505 5.7497 11.4663 5.86497 11.4091L7.64515 10.9695C8.11828 10.7379 8.11828 10.1319 7.64515 9.90197L5.86497 9.46018C5.7497 9.40474 5.65565 9.32094 5.59344 9.21865L5.09811 7.63369C4.96982 7.42225 4.73446 7.31653 4.4991 7.31653C4.26518 7.31653 4.02982 7.42225 3.8996 7.63369L3.4062 9.21865C3.34398 9.32094 3.24994 9.40474 3.13515 9.46018L1.35449 9.90197C0.881836 10.1319 0.881836 10.7379 1.35449 10.9695Z" fill="#E54592"/>
<path id="Fill-192" fill-rule="evenodd" clip-rule="evenodd" d="M36.5075 5.40643L39.0496 6.03546C39.2153 6.11556 39.3475 6.23507 39.4374 6.38101L40.1451 8.64635C40.3291 8.94787 40.6656 9.09842 41.0002 9.09842C41.3366 9.09842 41.6712 8.94787 41.8566 8.64635L42.5625 6.38101C42.6529 6.23507 42.787 6.11556 42.9503 6.03672L45.4928 5.40643C46.1691 5.07682 46.1691 4.21212 45.4928 3.88125L42.9503 3.25222C42.787 3.1717 42.651 3.05219 42.5625 2.90667L41.8548 0.640905C41.6712 0.33981 41.3348 0.188843 41.0002 0.188843C40.6637 0.188843 40.3291 0.33981 40.1432 0.640905L39.4374 2.90667C39.3475 3.05219 39.2134 3.1717 39.0496 3.25222L36.5075 3.88125C35.8308 4.21044 35.8308 5.07682 36.5075 5.40643Z" fill="#E54592"/>
<path id="Fill-193" fill-rule="evenodd" clip-rule="evenodd" d="M52.2787 25.243L51.9788 25.8029C51.7444 26.2393 51.2496 26.5226 50.7153 26.5226H46.9902C46.44 23.9684 43.9675 22.0338 41.0057 22.0338C38.0434 22.0338 35.5695 23.9684 35.0211 26.5226H19.2293C18.6791 23.9684 16.2071 22.0338 13.2448 22.0338C10.283 22.0338 7.8105 23.9684 7.26029 26.5226H3.41297C2.8287 26.5226 2.35164 26.089 2.35164 25.5552V20.1977C2.35164 19.748 2.68513 19.3617 3.16445 19.2581L8.9268 17.9914C10.0186 17.7537 10.9768 17.1616 11.6301 16.3301L14.3098 12.906C15.1244 11.8641 16.4483 11.2413 17.8522 11.2413H31.7181C32.9803 11.2413 34.1779 11.7399 35.0052 12.6082L38.2706 16.039C38.9807 16.7848 39.9548 17.3057 41.0161 17.5078L49.5758 19.1447C50.1315 19.2499 51.136 20.1493 52.2877 22.3572C52.7684 23.281 52.7666 24.3341 52.2787 25.243ZM41.0057 31.0113C38.938 31.0113 37.2556 29.4792 37.2556 27.5951C37.2556 25.7105 38.938 24.1771 41.0057 24.1771C43.0734 24.1771 44.7558 25.7105 44.7558 27.5951C44.7558 29.4792 43.0734 31.0113 41.0057 31.0113ZM13.2448 31.0113C11.1771 31.0113 9.49472 29.4792 9.49472 27.5951C9.49472 25.7105 11.1771 24.1771 13.2448 24.1771C15.3125 24.1771 16.9949 25.7105 16.9949 27.5951C16.9949 29.4792 15.3125 31.0113 13.2448 31.0113ZM54.4122 21.4371C53.0224 18.7761 51.599 17.3413 50.0588 17.0469L41.4991 15.41C40.938 15.3031 40.4237 15.0282 40.047 14.6336L36.7817 11.2028C35.5073 9.86487 33.6618 9.09839 31.7181 9.09839H17.8522C15.6905 9.09839 13.6514 10.0558 12.3947 11.6604L9.71507 15.0849C9.39204 15.4974 8.91635 15.7901 8.3766 15.9081L2.61425 17.1732C1.07541 17.5111 0 18.755 0 20.1977V25.5552C0 27.2712 1.53157 28.6659 3.41297 28.6659H7.26029C7.8105 31.2213 10.283 33.1542 13.2448 33.1542C16.2071 33.1542 18.6791 31.2213 19.2293 28.6659H35.0211C35.5695 31.2213 38.0434 33.1542 41.0057 33.1542C43.9675 33.1542 46.44 31.2213 46.9902 28.6659H50.7153C52.1424 28.6659 53.4677 27.9118 54.0924 26.7441L54.3927 26.1842C55.1964 24.6832 55.2019 22.9527 54.4122 21.4371Z" fill="#E54592"/>
</g>
</g>
</g>
</g>
<defs>
<clipPath id="clip0_15_190">
<rect width="55" height="32.9654" fill="white" transform="translate(0 0.188843)"/>
</clipPath>
</defs>
</svg>
