<svg width="55" height="28" viewBox="0 0 55 28" fill="none" xmlns="http://www.w3.org/2000/svg">
<g id="hp-lifetime-engine 1" clip-path="url(#clip0_15_172)">
<g id="Page-1">
<g id="Cars-Like-New_No-Dings_2">
<g id="LEG">
<path id="Fill-160" fill-rule="evenodd" clip-rule="evenodd" d="M35.8065 13.3469C38.4459 10.6648 40.6986 10.5668 40.7359 10.5651C42.2037 10.3803 43.2054 11.2091 43.2169 11.2172C43.9644 11.8212 44.4095 12.783 44.4095 13.7911C44.4095 15.5681 42.811 16.9856 40.7699 17.0154C40.7512 17.0154 40.7325 17.0154 40.7134 17.0154C39.0704 17.0154 37.8663 15.9174 37.8553 15.9059H37.8534L35.6285 13.9176C35.438 13.6915 35.7989 13.3537 35.8065 13.3469ZM19.7497 14.1438C19.7515 14.232 19.7142 14.3086 19.6319 14.3802C18.6766 15.192 16.2799 17.0823 14.6685 17.0823C12.6719 17.0823 11.0471 15.6363 11.0471 13.8576C11.0471 12.0806 12.6719 10.6333 14.6815 10.6333C14.7001 10.635 14.7078 10.6333 14.7245 10.6333C14.7786 10.6316 16.0837 10.6133 17.3247 11.7765C17.351 11.7978 18.1828 12.5449 19.4596 13.6881L19.4654 13.6932C19.4692 13.6949 19.7439 13.9159 19.7497 14.1438ZM50.3769 21.0737L50.3621 21.092C50.3339 21.1316 47.4939 24.9735 41.0671 24.9735H40.9848C40.9474 24.9735 40.9115 24.9752 40.8723 24.9787C40.824 24.9833 35.7687 25.3777 31.3418 21.5146C29.5811 19.9774 27.2385 17.9073 24.3818 15.3667L22.2339 13.4052L18.8595 10.4352C17.3323 9.00793 15.4888 8.68678 14.6422 8.72C11.4735 8.7315 8.8954 11.0375 8.8954 13.8576C8.8954 16.6913 11.4864 18.9956 14.6685 18.9956C16.7432 18.9956 19.0839 17.4397 20.6862 16.1321C20.9738 15.8744 21.2505 15.7496 21.5142 15.7543C21.8042 15.7611 21.9741 15.9293 21.9856 15.9408L22.8508 16.7113L25.5859 19.2069C25.6161 19.2333 26.3038 19.8291 25.7338 20.3714C24.0009 21.8208 19.3849 25.1665 13.9933 24.9919C11.1706 24.9003 8.63553 23.9901 6.46134 22.2897C4.83703 21.0205 4.02536 19.7576 3.99377 19.706C3.9842 19.6928 3.97511 19.6758 3.96362 19.6626C3.9507 19.6443 2.60493 17.6629 2.24025 14.9207C1.76167 11.3037 3.13185 8.08281 6.32303 5.33598C6.35461 5.30744 9.52378 2.58063 14.6944 2.58063C15.7583 2.58063 16.8461 2.69861 17.9229 2.92819C18.0933 2.96993 22.0846 4.00153 25.6252 7.68328C25.6419 7.7016 25.6606 7.71991 25.6793 7.73652L36.2961 17.2254C36.4866 17.4035 38.2348 18.9607 40.8053 18.9304C42.3439 18.9074 43.7869 18.3682 44.8675 17.4133C45.9591 16.4464 46.5593 15.1605 46.5593 13.7911C46.5593 12.2288 45.8696 10.773 44.6617 9.79974C43.6505 8.9828 42.2262 8.56539 40.7699 8.65185C40.0219 8.63524 37.3188 8.82819 34.1501 12.1223C34.0903 12.1858 34.0305 12.2156 33.9649 12.2173C33.8678 12.2139 33.7687 12.1475 33.7347 12.1155L29.293 8.13434L29.2911 8.13264C29.1064 7.97121 29.0164 7.79658 29.0241 7.61173C29.037 7.24415 29.4203 6.94472 29.4275 6.93961C31.4409 5.31085 35.584 2.57722 40.7024 2.57722C43.6935 2.57722 46.3353 3.43419 48.5502 5.12429C50.2065 6.38888 50.9957 7.66326 51.0273 7.7148C51.0388 7.73312 51.0517 7.75314 51.0627 7.77145C51.0742 7.78806 52.1994 9.44025 52.665 11.9026C53.28 15.1639 52.5119 18.2485 50.3769 21.0737ZM54.7717 11.512C54.2486 8.81967 53.0464 6.98944 52.912 6.79309C52.7493 6.52688 51.839 5.1277 50.0161 3.7217C48.2085 2.32592 45.1255 0.662231 40.7024 0.662231C34.6455 0.662231 29.9343 3.86481 27.663 5.77511C27.4739 5.92291 27.2777 5.98978 27.0796 5.97317C26.691 5.93824 26.401 5.59878 26.388 5.58515C22.5948 2.08655 18.6374 1.11627 18.4709 1.07666L18.4465 1.07155C10.2507 -0.687119 5.03325 3.78005 4.81645 3.97001C0.192879 7.94949 -0.292881 12.2821 0.114392 15.2189C0.535065 18.2536 1.96172 20.4148 2.1206 20.6478C2.5073 21.2615 6.13064 26.6492 13.9148 26.9051C14.0832 26.912 14.2498 26.9137 14.4158 26.9137C20.2167 26.9137 24.98 23.6442 27.304 21.6943C27.5472 21.4911 28.1339 21.3582 28.6819 21.8706C28.947 22.1185 29.2184 22.3515 29.4821 22.576C29.6017 22.679 29.7213 22.7808 29.8372 22.8822C34.7819 27.1982 40.4052 26.9337 41.0446 26.8885H41.069C48.1075 26.8885 51.538 22.9418 52.1659 22.1351C55.5461 17.8226 55.1139 13.2689 54.7717 11.512Z" fill="#E54592"/>
<path id="Fill-161" fill-rule="evenodd" clip-rule="evenodd" d="M47.1429 18.3978L48.7687 19.9133C49.8423 18.8319 50.6159 17.5833 51.0714 16.2019L48.9221 15.5381C48.573 16.5974 47.9757 17.5593 47.1429 18.3978Z" fill="#E54592"/>
<path id="Fill-162" fill-rule="evenodd" clip-rule="evenodd" d="M40.4201 21.2715L40.2679 23.3852C40.4992 23.403 40.7327 23.4135 40.9588 23.4135C42.0683 23.4135 43.1561 23.1927 44.1964 22.7597L43.4566 20.7883C42.4872 21.193 41.472 21.3572 40.4201 21.2715Z" fill="#E54592"/>
<path id="Fill-163" fill-rule="evenodd" clip-rule="evenodd" d="M47.1429 9.83079C47.8892 10.7417 48.4225 11.8073 48.687 12.9128L51.0714 12.4572C50.735 11.052 50.0563 9.6963 49.109 8.5376L47.1429 9.83079Z" fill="#E54592"/>
<path id="Fill-164" fill-rule="evenodd" clip-rule="evenodd" d="M31.4286 19.6264C32.6732 20.4584 33.9447 21.1431 35.2077 21.6633L36.3393 19.9609C35.2366 19.5086 34.115 18.9028 33.0097 18.1631L31.4286 19.6264Z" fill="#E54592"/>
<path id="Fill-165" fill-rule="evenodd" clip-rule="evenodd" d="M41.3063 5.03748L41.25 7.06302C41.6879 7.0748 42.1462 7.1123 42.6111 7.17378C43.2178 7.25228 43.8052 7.41711 44.3608 7.66262L45.1786 5.80932C44.4476 5.48576 43.6726 5.26946 42.8754 5.16524C42.3403 5.09373 41.8139 5.05143 41.3063 5.03748Z" fill="#E54592"/>
<path id="Fill-166" fill-rule="evenodd" clip-rule="evenodd" d="M32.4107 8.36533L34.4785 9.41267C34.5111 9.37103 35.3113 8.39549 37.3214 7.74457L36.4146 5.91248C33.6641 6.80218 32.532 8.2077 32.4107 8.36533Z" fill="#E54592"/>
<path id="Fill-167" fill-rule="evenodd" clip-rule="evenodd" d="M12.2012 22.5385L12.7679 20.5084C11.5557 20.2645 10.4616 19.7682 9.51206 19.0383L7.85715 20.5807C9.117 21.5526 10.5776 22.2102 12.2012 22.5385Z" fill="#E54592"/>
<path id="Fill-168" fill-rule="evenodd" clip-rule="evenodd" d="M13.9629 4.1871C13.929 4.19068 13.8571 4.1974 13.75 4.21307L14.0246 6.2736C14.1017 6.26286 14.1466 6.25793 14.1552 6.25793L14.1903 6.25256C14.1903 6.25256 14.2738 6.2436 14.4293 6.2436C14.8559 6.2436 15.7563 6.3139 16.9945 6.78762L17.6786 4.83589C16.1529 4.25158 14.9883 4.16427 14.4293 4.16248C14.1886 4.16248 14.0297 4.17815 13.9629 4.1871Z" fill="#E54592"/>
<path id="Fill-169" fill-rule="evenodd" clip-rule="evenodd" d="M20.625 9.13773C21.4703 9.70772 22.3151 10.3882 23.1352 11.1628L24.5536 9.88592C23.6554 9.03939 22.7269 8.29081 21.7937 7.6626L20.625 9.13773Z" fill="#E54592"/>
<path id="Fill-170" fill-rule="evenodd" clip-rule="evenodd" d="M28.222 12.9128L26.5179 14.196C26.6674 14.4008 26.8169 14.6117 26.9665 14.8254C27.5719 15.6984 28.1988 16.5262 28.8275 17.2881L30.4464 15.8963C29.8569 15.1832 29.2674 14.4027 28.6939 13.579C28.5353 13.3523 28.3789 13.1307 28.222 12.9128Z" fill="#E54592"/>
<path id="Fill-171" fill-rule="evenodd" clip-rule="evenodd" d="M5.89285 8.56288L7.71359 9.41267C8.19978 8.61727 8.90816 7.94661 9.82142 7.41661L8.68063 5.91248C7.47939 6.60917 6.54213 7.50015 5.89285 8.56288Z" fill="#E54592"/>
<path id="Fill-172" fill-rule="evenodd" clip-rule="evenodd" d="M7.22641 13.7878H4.91072V13.8234C4.91072 15.0196 5.17129 16.1846 5.68743 17.288L7.85715 16.652C7.44463 15.7663 7.22641 14.7881 7.22641 13.8313V13.7878Z" fill="#E54592"/>
<path id="Fill-173" fill-rule="evenodd" clip-rule="evenodd" d="M20.625 20.8883L19.361 19.0383C18.1198 19.6973 16.8933 20.1731 15.7143 20.4543L16.3576 22.5385C17.753 22.2044 19.19 21.6486 20.625 20.8883Z" fill="#E54592"/>
</g>
</g>
</g>
</g>
<defs>
<clipPath id="clip0_15_172">
<rect width="55" height="26.7287" fill="white" transform="translate(0 0.662231)"/>
</clipPath>
</defs>
</svg>
