<svg width="45" height="34" viewBox="0 0 45 34" fill="none" xmlns="http://www.w3.org/2000/svg">
<g id="hp-no-haggle 1" clip-path="url(#clip0_15_197)">
<g id="Page-1">
<g id="Cars-Like-New_No-Dings_2">
<g id="NOHAGGLE">
<path id="Fill-1" fill-rule="evenodd" clip-rule="evenodd" d="M44.6799 17.4334L42.1616 9.50793L0 20.3019L2.51961 28.2257C3.54433 31.4516 6.81447 33.5638 10.3535 33.5638C11.0816 33.5638 11.8212 33.4743 12.5559 33.2865L39.127 26.4839C41.2124 25.9507 42.9393 24.7136 43.9878 22.9993C45.0314 21.2921 45.2788 19.316 44.6799 17.4334ZM40.9721 21.5142C40.3679 22.4985 39.3792 23.2087 38.1831 23.5151L11.612 30.3162C9.34287 30.8987 6.97222 29.8328 6.04549 27.9118L13.1895 26.0832C13.4932 26.0047 13.6698 25.7212 13.5824 25.4471L12.954 23.4674C12.8666 23.1949 12.5493 23.036 12.2435 23.1133L5.0568 24.9542L4.25179 22.4232L39.7962 13.3249L40.6012 15.8559L33.4128 17.6952C33.1091 17.7741 32.9321 18.0588 33.0182 18.3317L33.6479 20.311C33.734 20.5839 34.0513 20.7424 34.3571 20.6639L41.5007 18.8353C41.6536 19.7565 41.477 20.69 40.9721 21.5142Z" fill="#E54592"/>
<path id="Fill-4" fill-rule="evenodd" clip-rule="evenodd" d="M1.27397 11.0474L3.16185 12.1083C3.40494 12.2454 3.71986 12.1837 3.87774 11.9601C5.72303 9.3473 9.22772 8.38424 12.2233 9.66362C12.4793 9.77403 12.7779 9.66362 12.9099 9.42588L13.9349 7.56222C14.0798 7.3011 13.9754 6.96907 13.6947 6.84455C9.17217 4.82494 3.82261 6.29694 1.08476 10.3152C0.916859 10.5626 1.00791 10.8979 1.27397 11.0474Z" fill="#E54592"/>
<path id="Fill-5" fill-rule="evenodd" clip-rule="evenodd" d="M23.2739 5.7006L25.1616 6.76333C25.4047 6.89874 25.7196 6.83869 25.8779 6.61543C27.7231 4.00191 31.2271 3.03872 34.2225 4.31868C34.4789 4.4287 34.7788 4.31868 34.9095 4.0809L35.9357 2.21699C36.0794 1.95544 35.9749 1.62336 35.696 1.49883C31.172 -0.520651 25.824 0.951137 23.0847 4.96873C22.9168 5.21739 23.0082 5.55108 23.2739 5.7006Z" fill="#E54592"/>
</g>
</g>
</g>
</g>
<defs>
<clipPath id="clip0_15_197">
<rect width="45" height="32.9654" fill="white" transform="translate(0 0.598389)"/>
</clipPath>
</defs>
</svg>
