<svg width="200" height="200" viewBox="0 0 200 200" fill="none" xmlns="http://www.w3.org/2000/svg">
<g id="healthicons:ui-user-profile">
<g id="Group">
<path id="Vector" d="M133.333 83.3333C133.333 92.1739 129.821 100.652 123.57 106.904C117.319 113.155 108.84 116.667 99.9998 116.667C91.1593 116.667 82.6808 113.155 76.4296 106.904C70.1784 100.652 66.6665 92.1739 66.6665 83.3333C66.6665 74.4928 70.1784 66.0143 76.4296 59.7631C82.6808 53.5119 91.1593 50 99.9998 50C108.84 50 117.319 53.5119 123.57 59.7631C129.821 66.0143 133.333 74.4928 133.333 83.3333Z" fill="#143F54"/>
<path id="Vector_2" fill-rule="evenodd" clip-rule="evenodd" d="M96.5998 183.267C52.154 181.483 16.6665 144.883 16.6665 100C16.6665 53.975 53.9748 16.6667 99.9998 16.6667C146.025 16.6667 183.333 53.975 183.333 100C183.333 146.025 146.025 183.333 99.9998 183.333C99.6193 183.336 99.2387 183.336 98.8582 183.333C98.104 183.333 97.3498 183.308 96.5998 183.267ZM46.5248 152.583C45.9018 150.794 45.6897 148.887 45.9043 147.005C46.119 145.122 46.7549 143.313 47.7647 141.709C48.7746 140.106 50.1326 138.751 51.7379 137.745C53.3431 136.738 55.1544 136.106 57.0373 135.896C89.5207 132.3 110.679 132.625 143.004 135.971C144.889 136.167 146.705 136.791 148.313 137.795C149.921 138.8 151.278 140.157 152.282 141.765C153.286 143.374 153.909 145.189 154.105 147.075C154.301 148.96 154.064 150.866 153.412 152.646C167.266 138.629 175.025 119.708 175 100C175 58.5792 141.421 25 99.9998 25C58.579 25 24.9998 58.5792 24.9998 100C24.9998 120.483 33.2123 139.05 46.5248 152.583Z" fill="#143F54"/>
</g>
</g>
</svg>
